<?xml version="1.0" standalone="no"?>
<!DOCTYPE svg PUBLIC "-//W3C//DTD SVG 20010904//EN"
 "http://www.w3.org/TR/2001/REC-SVG-20010904/DTD/svg10.dtd">
<svg version="1.0" xmlns="http://www.w3.org/2000/svg"
 width="2000.000000pt" height="2000.000000pt" viewBox="0 0 2000.000000 2000.000000"
 preserveAspectRatio="xMidYMid meet">
<metadata>
Created by potrace 1.16, written by Peter Selinger 2001-2019
</metadata>
<g transform="translate(0.000000,2000.000000) scale(0.100000,-0.100000)"
fill="#000000" stroke="none">
<path d="M10785 16631 c-212 -35 -425 -146 -528 -275 -45 -57 -77 -124 -207
-426 -49 -113 -141 -326 -205 -475 -64 -148 -150 -346 -190 -440 -40 -93 -132
-307 -205 -475 -73 -168 -165 -381 -205 -475 -40 -93 -146 -339 -235 -545 -89
-206 -195 -451 -235 -545 -40 -93 -126 -291 -190 -440 -163 -378 -324 -750
-410 -950 -40 -93 -126 -291 -190 -440 -64 -148 -150 -346 -190 -440 -40 -93
-146 -339 -235 -545 -415 -961 -490 -1133 -600 -1390 -65 -151 -171 -396 -235
-545 -64 -148 -150 -346 -190 -440 -40 -93 -133 -307 -205 -475 -73 -168 -145
-334 -160 -370 -15 -36 -101 -234 -190 -440 -89 -206 -195 -451 -235 -545 -40
-93 -146 -339 -235 -545 -89 -206 -187 -433 -218 -505 -55 -127 -56 -132 -57
-226 0 -90 2 -99 38 -173 84 -168 241 -273 492 -326 300 -65 667 41 854 246
70 76 65 67 238 469 50 116 150 347 223 515 73 168 165 382 205 475 40 94 126
292 190 440 64 149 170 394 235 545 65 151 171 397 235 545 64 149 150 347
190 440 40 94 132 305 203 470 71 165 156 361 187 435 32 74 61 139 66 143 7
9 50 -14 324 -168 66 -37 158 -89 205 -115 47 -26 180 -100 295 -165 116 -65
289 -162 385 -215 96 -54 229 -128 295 -165 176 -99 514 -287 725 -405 102
-56 190 -108 197 -114 9 -8 -48 -45 -235 -149 -136 -75 -344 -191 -462 -258
-118 -66 -314 -176 -435 -244 -121 -67 -274 -153 -340 -190 -66 -37 -183 -102
-260 -145 -77 -42 -214 -119 -305 -170 -91 -51 -203 -114 -250 -140 -47 -26
-139 -78 -205 -115 -66 -37 -205 -115 -310 -173 -220 -123 -293 -176 -345
-252 -55 -82 -58 -88 -85 -219 -25 -119 -26 -127 -22 -483 3 -336 5 -371 26
-468 19 -83 32 -118 65 -170 39 -60 113 -132 161 -158 21 -11 182 -55 200 -54
6 0 52 11 103 25 99 27 96 25 662 352 140 81 386 223 545 315 160 92 394 227
520 300 127 73 320 185 430 248 110 63 243 140 295 170 52 30 151 88 220 127
218 126 794 457 822 474 15 9 103 59 195 112 92 53 297 171 454 262 261 150
354 197 394 197 7 0 42 23 76 50 85 68 136 150 168 270 24 92 25 106 29 494 3
378 2 404 -18 500 -27 129 -81 220 -169 290 -33 25 -163 106 -288 178 -125 72
-334 191 -463 266 -129 74 -354 204 -500 287 -146 84 -366 211 -490 282 -782
450 -1070 615 -1182 677 -70 39 -127 74 -128 78 0 4 44 30 98 59 115 62 115
62 487 264 160 87 461 251 670 365 209 114 565 307 790 430 226 123 540 294
699 380 158 86 315 179 349 206 81 65 138 156 160 254 32 141 37 215 37 551 0
303 -2 346 -21 440 -30 146 -74 224 -170 302 -47 39 -72 50 -156 72 l-99 26
-84 -21 c-115 -29 -110 -27 -431 -208 -156 -88 -320 -180 -364 -204 -44 -24
-210 -118 -370 -208 -159 -89 -382 -214 -495 -278 -113 -63 -259 -145 -325
-182 -210 -118 -365 -205 -558 -314 -103 -58 -191 -106 -196 -106 -5 0 32 93
81 208 49 114 130 302 180 417 105 244 157 365 378 875 89 206 195 452 235
545 40 94 126 292 190 440 64 149 164 380 222 515 58 135 113 263 123 285 23
51 190 437 270 625 73 170 89 242 73 328 -38 202 -209 355 -478 427 -69 19
-322 28 -400 16z"/>
<path d="M9900 4430 l0 -270 2415 0 2415 0 0 270 0 270 -2415 0 -2415 0 0
-270z"/>
</g>
</svg>
